<?xml version="1.0" encoding="UTF-8" standalone="no"?>
<svg
   xmlns:dc="http://purl.org/dc/elements/1.1/"
   xmlns:cc="http://creativecommons.org/ns#"
   xmlns:rdf="http://www.w3.org/1999/02/22-rdf-syntax-ns#"
   xmlns:svg="http://www.w3.org/2000/svg"
   xmlns="http://www.w3.org/2000/svg"
   xmlns:sodipodi="http://sodipodi.sourceforge.net/DTD/sodipodi-0.dtd"
   xmlns:inkscape="http://www.inkscape.org/namespaces/inkscape"
   id="svglogo"
   width="290"
   height="128"
   version="1.1"
   inkscape:version="0.48.4 r9939"
   sodipodi:docname="korraslogo.svg"
   inkscape:export-filename="/home/priit/workspace/LemmingsEffect/leht/images/logo.png"
   inkscape:export-xdpi="90"
   inkscape:export-ydpi="90">
  <metadata
     id="metadata14">
    <rdf:RDF>
      <cc:Work
         rdf:about="">
        <dc:format>image/svg+xml</dc:format>
        <dc:type
           rdf:resource="http://purl.org/dc/dcmitype/StillImage" />
        <dc:title></dc:title>
      </cc:Work>
    </rdf:RDF>
  </metadata>
  <defs
     id="defs12">
    <filter
       id="filter3777"
       style="color-interpolation-filters:sRGB;"
       inkscape:label="Drop Shadow">
      <feFlood
         id="feFlood3779"
         flood-opacity="0.5"
         flood-color="rgb(0,0,0)"
         result="flood" />
      <feComposite
         id="feComposite3781"
         in2="SourceGraphic"
         in="flood"
         operator="in"
         result="composite1" />
      <feGaussianBlur
         id="feGaussianBlur3783"
         in="composite"
         stdDeviation="4"
         result="blur" />
      <feOffset
         id="feOffset3785"
         dx="0"
         dy="6"
         result="offset" />
      <feComposite
         id="feComposite3787"
         in2="offset"
         in="SourceGraphic"
         operator="over"
         result="composite2" />
    </filter>
    <filter
       id="filter3228"
       y="-0.25"
       height="1.5"
       inkscape:menu-tooltip="Blur the contents of objects, preserving the outline and adding progressive transparency at edges"
       inkscape:menu="Blurs"
       inkscape:label="Evanescent"
       color-interpolation-filters="sRGB">
      <feGaussianBlur
         id="feGaussianBlur3230"
         stdDeviation="5"
         result="result6" />
      <feComposite
         id="feComposite3232"
         in2="result6"
         result="result8"
         in="SourceGraphic"
         operator="atop" />
      <feComposite
         id="feComposite3234"
         in2="SourceAlpha"
         result="result9"
         operator="over"
         in="result8" />
      <feColorMatrix
         id="feColorMatrix3236"
         values="1 0 0 0 0 0 1 0 0 0 0 0 1 0 0 0 0 0 1 0 "
         result="result10" />
      <feBlend
         id="feBlend3238"
         in2="result6"
         in="result10"
         mode="normal"
         result="fbSourceGraphic" />
      <feColorMatrix
         result="fbSourceGraphicAlpha"
         in="fbSourceGraphic"
         values="0 0 0 -1 0 0 0 0 -1 0 0 0 0 -1 0 0 0 0 1 0"
         id="feColorMatrix3240" />
      <feGaussianBlur
         id="feGaussianBlur3242"
         result="result6"
         stdDeviation="3"
         in="fbSourceGraphic" />
      <feColorMatrix
         id="feColorMatrix3244"
         values="1 0 0 0 0 0 1 0 0 0 0 0 1 0 0 0 0 0 1 0 "
         result="result7"
         in="fbSourceGraphic" />
      <feComposite
         id="feComposite3246"
         in2="result7"
         operator="in"
         in="result6" />
    </filter>
  </defs>
  <sodipodi:namedview
     pagecolor="#ffffff"
     bordercolor="#666666"
     borderopacity="1"
     objecttolerance="10"
     gridtolerance="10"
     guidetolerance="10"
     inkscape:pageopacity="0"
     inkscape:pageshadow="2"
     inkscape:window-width="1920"
     inkscape:window-height="1021"
     id="namedview10"
     showgrid="false"
     inkscape:zoom="2.6074563"
     inkscape:cx="178.96816"
     inkscape:cy="30.611752"
     inkscape:window-x="1916"
     inkscape:window-y="-3"
     inkscape:window-maximized="1"
     inkscape:current-layer="svglogo" />
  <polygon
     id="poly1"
     points="119,92 9,77 109,12 26,9 47,70 "
     style="fill:#29f94b; fill-opacity:0.8578532009013957;" />
  <polygon
     id="poly2"
     points="120,63 4,19 97,14 33,54 96,82 "
     style="fill:#e61457; fill-opacity:0.4218020974764566;" />
  <polygon
     id="poly3"
     points="18,50 80,86 4,66 1,105 5,2 "
     style="fill:#dd1a44; fill-opacity:0.8160406717281053;" />
  <polygon
     id="poly4"
     points="115,112 80,101 11,45 72,14 113,89 "
     style="fill:#782b80; fill-opacity:0.4217285640770856;" />
  <polygon
     id="poly5"
     points="67,111 37,56 26,65 39,34 118,7 "
     style="fill:#68a8a6; fill-opacity:0.3558116564650602;" />
  <polygon
     id="poly6"
     points="24,65 38,30 73,9 107,2 2,9 "
     style="fill:#fbdc33; fill-opacity:0.29108152595651915;" />
  <polygon
     id="poly7"
     points="44,44 34,119 12,25 108,20 109,47 "
     style="fill:#d490fa; fill-opacity:0.8076073921741932;" />
  <polygon
     id="poly8"
     points="24,120 96,125 22,13 77,128 21,119 "
     style="fill:#82abdf; fill-opacity:0.9870027674353993;" />
  <polygon
     id="poly9"
     points="27,17 113,4 100,25 99,1 50,52 "
     style="fill:#c18d46; fill-opacity:0.28689779049182207;" />
  <polygon
     id="poly10"
     points="120,80 125,10 98,15 122,71 47,13 "
     style="fill:#5a9935; fill-opacity:0.7552831117846872;" />
  <polygon
     id="poly11"
     points="83,65 50,110 38,79 125,36 7,56 "
     style="fill:#61cfcd; fill-opacity:0.5186749321619192;" />
  <polygon
     id="poly12"
     points="25,93 42,32 106,66 49,122 105,30 "
     style="fill:#5be214; fill-opacity:0.18674464048054817;" />
  <script
     type="text/javascript"
     id="script8">
    function funpolygon(n, polyid){
        var tipud=&quot;&quot;;
	var varv=&quot;fill:#&quot;;
	for (var i=0; i&lt;n;i++){
	  var tipud= tipud+Math.floor((Math.random()*128)+1)+&quot;,&quot;;
	  var tipud= tipud+Math.floor((Math.random()*128)+1)+&quot; &quot;;
	  }
	for (var i=0; i&lt;6;i++){
	  var lisa= (Math.floor((Math.random()*16)));
	  var varv=varv+(lisa.toString(16));
	  }
	varv=varv+&quot;; fill-opacity:&quot;+Math.random()+&quot;;&quot;;
	var polyg = document.getElementById(polyid);
	polyg.setAttribute('points',tipud);
	polyg.setAttribute('style',varv);
	}
    funpolygon(5, &quot;poly1&quot;);
    funpolygon(5, &quot;poly2&quot;);
    funpolygon(5, &quot;poly3&quot;);
    funpolygon(5, &quot;poly4&quot;);
    funpolygon(5, &quot;poly5&quot;);
    funpolygon(5, &quot;poly6&quot;);
    funpolygon(5, &quot;poly7&quot;);
    funpolygon(5, &quot;poly8&quot;);
    funpolygon(5, &quot;poly9&quot;);
    funpolygon(5, &quot;poly10&quot;);
    funpolygon(5, &quot;poly11&quot;);
    funpolygon(5, &quot;poly12&quot;);
    </script>
  <rect
     style="fill:#aaaaaa;fill-opacity:1"
     id="rect3804"
     width="215.15224"
     height="51.007568"
     x="75.169044"
     y="70.472664" />
  <path
     inkscape:connector-curvature="0"
     style="fill:#999999;fill-opacity:1;filter:url(#filter3228)"
     d="m -0.70082422,3.6090751 0,129.1250049 361.90625422,0 0,-129.1250049 -361.90625422,0 z m 8.37499992,14.8124999 42.4375103,0 0,2.84375 c -11.99999,1.05 -13.625,2.70001 -13.625,13.5 l 0,48 c 0,18.299985 5.08127,30.468755 25.78125,30.468755 11.24998,0 20.85625,-4.64376 24.90625,-11.84375 2.39999,-4.499995 3.4375,-10.206265 3.4375,-20.406255 l 0,-40.5 c 0,-14.99998 -2.39377,-18.31875 -14.09375,-19.21875 l 0,-2.84375 34.812494,0 0,2.84375 c -12.299987,1.5 -14.093747,3.91877 -14.093747,19.21875 l 0,39.15625 c 0,21.449985 -6.306287,40.187505 -38.406247,40.187505 -25.49998,0 -37.65626,-12.30003 -37.65626,-38.250005 l 0,-46.8125 c 0,-10.94999 -1.65001,-12.6 -13.5000003,-13.5 l 0,-2.84375 z m 148.2812543,57.21875 0.3125,0.125 0,36.281255 c 0,2.944 0.5085,3.65625 2.8125,3.65625 0.192,0 0.348,10e-4 1.5,-0.0625 l 0,1.03125 -9.40625,3.3125 -0.28125,-0.1875 0,-4.09375 c -2.176,3.008 -4.6035,4.28125 -8.1875,4.28125 -7.03999,0 -11.84375,-5.55801 -11.84375,-13.75 0,-9.087995 5.95251,-16.312505 13.3125,-16.312505 2.56,0 4.28675,0.702 6.71875,2.75 l 0,-10 c 0,-2.624 -0.5695,-3.25 -2.9375,-3.25 -0.512,0 -0.89425,-0.001 -1.40625,0.0625 l 0,-1.03125 c 4.096,-1.088 6.33425,-1.7245 9.40625,-2.8125 z m 13.375,0 c 1.856,0 3.34375,1.458 3.34375,3.25 0,1.856 -1.48775,3.28125 -3.34375,3.28125 -1.792,0 -3.1875,-1.48925 -3.1875,-3.28125 0,-1.792 1.4595,-3.25 3.1875,-3.25 z m 134.59375,0 0.34375,0.125 0,36.281255 c 0,2.944 0.5085,3.65625 2.8125,3.65625 0.192,0 0.31675,10e-4 1.46875,-0.0625 l 0,1.03125 -9.40625,3.3125 -0.25,-0.1875 0,-4.09375 c -2.176,3.008 -4.6035,4.28125 -8.1875,4.28125 -7.03999,0 -11.84375,-5.55801 -11.84375,-13.75 0,-9.087995 5.95251,-16.312505 13.3125,-16.312505 2.56,0 4.28675,0.702 6.71875,2.75 l 0,-10 c 0,-2.624 -0.60075,-3.25 -2.96875,-3.25 -0.512,0 -0.89425,-0.001 -1.40625,0.0625 l 0,-1.03125 c 4.096,-1.088 6.33425,-1.7245 9.40625,-2.8125 z m -131.5625,14.28125 0.25,0.1875 0,22.718755 c 0,4.608 0.49475,5.2425 4.71875,5.5625 l 0,0.96875 -15.15625,0 0,-0.96875 c 4.416,-0.256 5.0625,-0.9545 5.0625,-5.5625 l 0,-14.843755 c 0,-2.816 -0.589,-3.78125 -2.125,-3.78125 -0.576,0 -1.7275,0.0595 -2.6875,0.1875 l 0,-0.96875 c 3.328,-0.96 6.6095,-2.156 9.9375,-3.5 z m 38.34375,0 0.34375,0.125 0,5.875 c 3.136,-4.54399 4.96825,-6 7.65625,-6 2.176,0 3.53125,1.263 3.53125,3.375 0,1.792 -0.964,2.875 -2.5,2.875 -1.728,0 -3.19475,-2.21875 -4.21875,-2.21875 -1.728,0 -4.46875,3.202 -4.46875,5.25 l 0,14.375005 c 0,3.648 1.0855,4.6205 5.4375,4.8125 l 0,0.96875 -15.375,0 0,-0.96875 c 4.096,-0.768 4.5625,-1.20625 4.5625,-4.40625 l 0,-16.000005 c 0,-2.816 -0.5875,-3.84375 -2.1875,-3.84375 -0.768,0 -1.354,0.058 -2.25,0.25 l 0,-1.03125 c 3.776,-1.216 6.07675,-2.0295 9.46875,-3.4375 z m 26.21875,0 c 6.59199,0 10.00875,3.97476 10.96875,11.718755 l -19.71875,0 c 0.384,11.39199 5.80875,13.9375 9.96875,13.9375 4.096,0 6.8655,-1.85475 9.9375,-6.71875 l 1.03125,0.4375 c -2.688,6.91199 -7.51376,10.6875 -13.59375,10.6875 -7.35999,0 -11.96875,-5.48051 -11.96875,-14.3125 0,-9.535995 5.63101,-15.750005 13.375,-15.750005 z m 26.34375,0 c 7.42399,0 9.21875,3.81876 9.21875,10.218755 l 0,12.5 c 0,2.816 0.43425,3.71875 1.90625,3.71875 0.96,0 1.7245,-0.32275 2.8125,-1.21875 l 0,1.65625 c -2.24,2.432 -3.574,3.1875 -5.75,3.1875 -2.624,0 -3.77375,-1.32825 -4.09375,-4.65625 -3.904,3.328 -6.52775,4.65625 -9.34375,4.65625 -3.904,0 -6.71875,-2.81175 -6.71875,-6.84375 0,-6.91199 8.06401,-9.26875 16,-12.46875 l 0,-3.906255 c 0,-3.456 -1.739,-5.3125 -4.875,-5.3125 -2.56,0 -4.59375,1.397 -4.59375,3.125 0,0.896 0.3125,1.9865 0.3125,2.5625 0,1.408 -1.339,2.6875 -2.875,2.6875 -1.472,0 -2.75,-1.278 -2.75,-2.75 0,-4.03199 4.73401,-7.15625 10.75,-7.15625 z m 60.1875,0 c 6.59199,0 9.9775,3.97476 10.9375,11.718755 l -19.6875,0 c 0.384,11.39199 5.80875,13.9375 9.96875,13.9375 4.096,0 6.8655,-1.85475 9.9375,-6.71875 l 1,0.4375 c -2.688,6.91199 -7.48251,10.6875 -13.5625,10.6875 -7.35999,0 -11.96875,-5.48051 -11.96875,-14.3125 0,-9.535995 5.63101,-15.750005 13.375,-15.750005 z m 23,0 0.3125,0.125 0,5.875 c 3.136,-4.54399 4.9995,-6 7.6875,-6 2.176,0 3.53125,1.263 3.53125,3.375 0,1.792 -0.964,2.875 -2.5,2.875 -1.728,0 -3.19475,-2.21875 -4.21875,-2.21875 -1.728,0 -4.5,3.202 -4.5,5.25 l 0,14.375005 c 0,3.648 1.11675,4.6205 5.46875,4.8125 l 0,0.96875 -15.375,0 0,-0.96875 c 4.096,-0.768 4.53125,-1.20625 4.53125,-4.40625 l 0,-16.000005 c 0,-2.816 -0.55625,-3.84375 -2.15625,-3.84375 -0.768,0 -1.354,0.058 -2.25,0.25 l 0,-1.03125 c 3.776,-1.216 6.07675,-2.0295 9.46875,-3.4375 z m -157.25,0.0625 c 3.712,0 4.7795,1.21875 6.1875,1.21875 0.384,0 0.64725,-0.40025 1.03125,-0.65625 l 0.71875,0 0.25,8.71875 -0.96875,0 c -1.472,-5.69599 -3.38325,-7.875 -7.03125,-7.875 -2.944,0 -4.9375,1.78375 -4.9375,4.34375 0,1.728 0.958,3.31975 2.75,4.343755 l 6.9375,4.09375 c 3.84,2.304 5.375,4.425 5.375,7.625 0,4.48 -4.10325,8.1875 -9.03125,8.1875 -2.88,0 -6.025,-1.15625 -7.625,-1.15625 -0.768,0 -1.02075,0.14125 -1.46875,0.78125 l -0.84375,0 0,-9.96875 1.03125,0 c 0.576,2.56 1.59701,8.9375 8.125,8.9375 3.264,0 5.3125,-1.77775 5.3125,-4.59375 0,-1.984 -1.0725,-3.5325 -3.3125,-4.8125 l -3.71875,-2.09375 c -5.43999,-3.072 -7.5,-5.63475 -7.5,-9.218755 0,-4.60799 3.66276,-7.875 8.71875,-7.875 z m -90.656247,0.5625 9.343747,0 0,20.875005 c 0,2.688 2.03525,4.875 4.53125,4.875 1.28,0 6.84375,-0.72975 6.84375,-5.59375 l 0,-15.031255 c 0,-3.2 -0.75075,-3.83925 -4.71875,-4.03125 l 0,-1.09375 10.09375,0 0,21.968755 c 0,2.944 0.71225,3.625 3.65625,3.625 l 0.3125,0 0,0.90625 c -3.264,0.896 -5.55,1.595 -8.75,2.875 l -0.28125,-0.125 0,-5.3125 c -2.24,2.24 -4.73575,5.5 -9.34375,5.5 -4.672,0 -7.71875,-3.25651 -7.71875,-8.3125 l 0,-16.125005 c 0,-2.944 -0.89675,-3.90175 -3.968747,-4.09375 l 0,-0.90625 z m 45.812497,1.15625 c -4.864,0 -8,4.73676 -8,11.968755 0,7.87199 3.53176,13 8.84375,13 3.648,0 5.6875,-2.75575 5.6875,-3.84375 l 0,-14.718755 c 0,-3.392 -3.13925,-6.40625 -6.53125,-6.40625 z m 148,0 c -4.864,0 -8,4.73676 -8,11.968755 0,7.87199 3.50051,13 8.8125,13 3.648,0 5.71875,-2.75575 5.71875,-3.84375 l 0,-14.718755 c 0,-3.392 -3.13925,-6.40625 -6.53125,-6.40625 z m -57.28125,0.5 c -3.904,0 -6.07725,2.38301 -6.78125,7.375 l 13.0625,0 c -0.832,-5.56799 -2.37725,-7.375 -6.28125,-7.375 z m 86.53125,0 c -3.904,0 -6.07725,2.38301 -6.78125,7.375 l 13.0625,0 c -0.832,-5.56799 -2.37725,-7.375 -6.28125,-7.375 z m -54.3125,10.000005 c -7.74399,2.816 -10.375,5.13025 -10.375,8.90625 0,3.84 2.43125,5.1875 4.03125,5.1875 1.344,0 3.1515,-0.604 4.6875,-1.5 1.344,-0.768 1.65625,-1.3285 1.65625,-3.3125 l 0,-9.28125 z"
     id="rect3792-7"
     transform="matrix(0.82565533,0,0,1,-6.1584935,0)" />
  <path
     inkscape:connector-curvature="0"
     style="fill:#ffca80;fill-opacity:1"
     d="m -6.7371322,-0.60959456 0,129.89203456 298.8098322,0 0,-129.89203456 -298.8098322,0 z m 6.91486335,14.90048856 35.03875185,0 0,2.860643 C 25.308627,18.207774 23.966929,19.867586 23.966929,30.73173 l 0,48.285131 c 0,18.408685 4.195378,30.649749 21.286427,30.649749 9.288606,0 17.220074,-4.67135 20.563978,-11.914113 1.981564,-4.526721 2.83819,-10.266887 2.83819,-20.527467 l 0,-40.740579 c 0,-15.089084 -1.976429,-18.427568 -11.63658,-19.332914 l 0,-2.860643 28.743125,0 0,2.860643 C 75.606518,18.660447 74.12549,21.093585 74.12549,36.484451 l 0,39.388846 c 0,21.577398 -5.206822,40.426223 -31.710325,40.426223 -21.054194,0 -31.091087,-12.37309 -31.091087,-38.477213 l 0,-47.090577 c 0,-11.015035 -1.3623414,-12.674847 -11.14634685,-13.580193 l 0,-2.860643 z M 122.60694,71.849536 l 0.25802,0.125743 0,36.496771 c 0,2.96149 0.41984,3.67797 2.32215,3.67797 0.15853,0 0.28733,0.001 1.23848,-0.0629 l 0,1.03738 -7.76632,3.33217 -0.23221,-0.18861 0,-4.11807 c -1.79663,3.02587 -3.80091,4.30668 -6.76005,4.30668 -5.81261,0 -9.77886,-5.59102 -9.77886,-13.83168 0,-9.141975 4.91472,-16.4094 10.99154,-16.4094 2.11367,0 3.53937,0.70617 5.54737,2.766336 l 0,-10.059402 c 0,-2.639587 -0.47021,-3.269306 -2.42536,-3.269306 -0.42274,0 -0.73835,-10e-4 -1.16108,0.06287 l 0,-1.037376 c 3.38188,-1.094463 5.22991,-1.734744 7.76632,-2.829207 z m 11.04314,0 c 1.53241,0 2.76078,1.466661 2.76078,3.269306 0,1.867025 -1.22837,3.300742 -2.76078,3.300742 -1.47958,0 -2.63178,-1.498097 -2.63178,-3.300742 0,-1.802645 1.20505,-3.269306 2.63178,-3.269306 z m 111.12805,0 0.28381,0.125743 0,36.496771 c 0,2.96149 0.41985,3.67797 2.32216,3.67797 0.15853,0 0.26153,0.001 1.21268,-0.0629 l 0,1.03738 -7.76632,3.33217 -0.20641,-0.18861 0,-4.11807 c -1.79663,3.02587 -3.80091,4.30668 -6.76006,4.30668 -5.8126,0 -9.77885,-5.59102 -9.77885,-13.83168 0,-9.141975 4.91472,-16.4094 10.99154,-16.4094 2.11367,0 3.53937,0.70617 5.54737,2.766336 l 0,-10.059402 c 0,-2.639587 -0.49602,-3.269306 -2.45117,-3.269306 -0.42273,0 -0.73834,-10e-4 -1.16107,0.06287 l 0,-1.037376 c 3.38188,-1.094463 5.2299,-1.734744 7.76632,-2.829207 z m -108.62528,14.366084 0.20641,0.188614 0,22.853706 c 0,4.63538 0.40849,5.27364 3.89606,5.59554 l 0,0.97451 -12.51384,0 0,-0.97451 c 3.6461,-0.25752 4.17988,-0.96016 4.17988,-5.59554 l 0,-14.931927 c 0,-2.832727 -0.48631,-3.803711 -1.75451,-3.803711 -0.47558,0 -1.42632,0.05985 -2.21895,0.188614 l 0,-0.974505 c 2.74778,-0.965703 5.45717,-2.168807 8.20495,-3.520791 z m 31.65872,0 0.28382,0.125743 0,5.909899 c 2.58925,-4.570983 4.10206,-6.035642 6.32142,-6.035642 1.79663,0 2.9156,1.270503 2.9156,3.395049 0,1.802644 -0.79594,2.892078 -2.06414,2.892078 -1.42673,0 -2.63776,-2.23193 -3.48324,-2.23193 -1.42673,0 -3.68964,3.22102 -3.68964,5.281186 l 0,14.460397 c 0,3.66967 0.89625,4.64794 4.4895,4.84108 l 0,0.97451 -12.69445,0 0,-0.97451 c 3.38188,-0.77256 3.76705,-1.21341 3.76705,-4.43242 l 0,-16.095047 c 0,-2.832727 -0.48507,-3.866582 -1.80612,-3.866582 -0.6341,0 -1.11794,0.05834 -1.85773,0.251485 l 0,-1.037376 c 3.11768,-1.223224 5.0173,-2.041556 7.81793,-3.45792 z m 21.64765,0 c 5.44271,0 8.26378,3.998371 9.05641,11.788362 l -16.2809,0 c 0.31706,11.459668 4.79603,14.020298 8.23076,14.020298 3.38188,0 5.66853,-1.86577 8.20495,-6.75866 l 0.85145,0.4401 c -2.21936,6.95304 -6.20377,10.75098 -11.22375,10.75098 -6.07681,0 -9.88206,-5.51306 -9.88206,-14.39752 0,-9.592637 4.64927,-15.84356 11.04314,-15.84356 z m 21.75086,0 c 6.12965,0 7.61151,3.841445 7.61151,10.279452 l 0,12.574258 c 0,2.83273 0.35854,3.74084 1.5739,3.74084 0.79263,0 1.42384,-0.32467 2.32216,-1.22599 l 0,1.66609 c -1.84947,2.44644 -2.95089,3.20643 -4.74752,3.20643 -2.16652,0 -3.11582,-1.33614 -3.38003,-4.68391 -3.22336,3.34777 -5.38967,4.68391 -7.71471,4.68391 -3.22336,0 -5.54738,-2.82845 -5.54738,-6.8844 0,-6.95305 6.6581,-9.32381 13.21049,-12.542822 l 0,-3.929454 c 0,-3.47653 -1.43582,-5.344058 -4.02507,-5.344058 -2.11368,0 -3.79285,1.405299 -3.79285,3.143563 0,0.901323 0.25801,1.998301 0.25801,2.577722 0,1.416364 -1.10555,2.703465 -2.37376,2.703465 -1.21536,0 -2.27055,-1.285592 -2.27055,-2.766336 0,-4.055941 3.90866,-7.19876 8.8758,-7.19876 z m 49.69413,0 c 5.44271,0 8.23797,3.998371 9.0306,11.788362 l -16.25509,0 c 0.31705,11.459668 4.79603,14.020298 8.23075,14.020298 3.38189,0 5.66854,-1.86577 8.20495,-6.75866 l 0.82566,0.4401 c -2.21936,6.95304 -6.17798,10.75098 -11.19795,10.75098 -6.07682,0 -9.88206,-5.51306 -9.88206,-14.39752 0,-9.592637 4.64927,-15.84356 11.04314,-15.84356 z m 18.99007,0 0.25802,0.125743 0,5.909899 c 2.58925,-4.570983 4.12786,-6.035642 6.34722,-6.035642 1.79663,0 2.9156,1.270503 2.9156,3.395049 0,1.802644 -0.79593,2.892078 -2.06414,2.892078 -1.42673,0 -2.63776,-2.23193 -3.48323,-2.23193 -1.42674,0 -3.71545,3.22102 -3.71545,5.281186 l 0,14.460397 c 0,3.66967 0.92205,4.64794 4.5153,4.84108 l 0,0.97451 -12.69445,0 0,-0.97451 c 3.38188,-0.77256 3.74125,-1.21341 3.74125,-4.43242 l 0,-16.095047 c 0,-2.832727 -0.45927,-3.866582 -1.78032,-3.866582 -0.6341,0 -1.11794,0.05834 -1.85773,0.251485 l 0,-1.037376 c 3.11768,-1.223224 5.01731,-2.041556 7.81793,-3.45792 z m -129.8343,0.06287 c 3.06483,0 3.94622,1.225989 5.10874,1.225989 0.31705,0 0.53441,-0.402627 0.85146,-0.660148 l 0.59344,0 0.20641,8.770541 -0.79985,0 c -1.21537,-5.729825 -2.7934,-7.921779 -5.80539,-7.921779 -2.43073,0 -4.07667,1.794346 -4.07667,4.369553 0,1.738264 0.79097,3.33947 2.27055,4.369553 l 5.72798,4.118071 c 3.17052,2.31769 4.4379,4.45129 4.4379,7.6703 0,4.50661 -3.38787,8.23613 -7.4567,8.23613 -2.37789,0 -4.97457,-1.16312 -6.29562,-1.16312 -0.63411,0 -0.84279,0.14209 -1.21268,0.78589 l -0.69665,0 0,-10.02796 0.85146,0 c 0.47557,2.5752 1.31858,8.99059 6.70845,8.99059 2.69493,0 4.38629,-1.78831 4.38629,-4.62104 0,-1.99578 -0.88552,-3.55348 -2.73498,-4.84109 l -3.07041,-2.10618 c -4.49156,-3.09025 -6.19241,-5.668231 -6.19241,-9.273521 0,-4.635363 3.02417,-7.921779 7.19868,-7.921779 z m -74.850817,0.565841 7.714716,0 0,20.999009 c 0,2.70397 1.680415,4.90396 3.741251,4.90396 1.056839,0 5.650579,-0.73409 5.650579,-5.62698 l 0,-15.120545 c 0,-3.219009 -0.619861,-3.862056 -3.896061,-4.055197 l 0,-1.100247 8.333958,0 0,22.099259 c 0,2.96148 0.588073,3.64653 3.018802,3.64653 l 0.258022,0 0,0.91163 c -2.694943,0.90133 -4.582391,1.60448 -7.224489,2.89208 l -0.232215,-0.12574 0,-5.34406 c -1.849468,2.25331 -3.910097,5.53267 -7.714717,5.53267 -3.857462,0 -6.373027,-3.27585 -6.373027,-8.36188 l 0,-16.220788 c 0,-2.961488 -0.740407,-3.924927 -3.276819,-4.118068 l 0,-0.911633 z m 37.825337,1.163118 c -4.01599,0 -6.60525,4.764898 -6.60525,12.039851 0,7.91875 2.91602,13.07723 7.30189,13.07723 3.01199,0 4.69592,-2.77212 4.69592,-3.86659 l 0,-14.806186 c 0,-3.412149 -2.59194,-6.444305 -5.39256,-6.444305 z m 122.19699,0 c -4.01599,0 -6.60525,4.764898 -6.60525,12.039851 0,7.91875 2.89022,13.07723 7.27609,13.07723 3.01199,0 4.72172,-2.77212 4.72172,-3.86659 l 0,-14.806186 c 0,-3.412149 -2.59194,-6.444305 -5.39256,-6.444305 z m -47.29457,0.50297 c -3.22336,0 -5.01772,2.397166 -5.59898,7.41881 l 10.78512,0 c -0.68694,-5.601066 -1.96279,-7.41881 -5.18614,-7.41881 z m 71.44498,0 c -3.22335,0 -5.01771,2.397166 -5.59897,7.41881 l 10.78512,0 c -0.68694,-5.601066 -1.96279,-7.41881 -5.18615,-7.41881 z m -44.8434,10.059403 c -6.39387,2.832738 -8.56617,5.160728 -8.56617,8.959158 0,3.86281 2.00737,5.21832 3.32842,5.21832 1.10968,0 2.60205,-0.60759 3.87026,-1.50891 1.10968,-0.77256 1.36749,-1.33639 1.36749,-3.33218 l 0,-9.336388 z"
     id="rect3792" />
</svg>
